<svg width="20" height="20" viewBox="0 0 20 20" fill="none" xmlns="http://www.w3.org/2000/svg">
<path d="M14.1818 11H6.81818C6.32727 11 6 10.5714 6 10.1429V5.85714C6 5.42857 6.32727 5 6.81818 5H14.1818C14.5909 5 15 5.42857 15 5.85714V10.1429C15 10.5714 14.5909 11 14.1818 11Z" fill="white"/>
<path d="M8.11553 0C6.93091 0 6.00014 0.930769 6.00014 2.11538C6.00014 3.3 6.93091 4.23077 8.11553 4.23077C9.30014 4.23077 10.2309 3.3 10.2309 2.11538C10.2309 0.930769 9.30014 0 8.11553 0Z" fill="white"/>
<path d="M13.1935 0C12.0089 0 11.0781 0.930769 11.0781 2.11538C11.0781 3.3 12.0089 4.23077 13.1935 4.23077C14.3781 4.23077 15.3089 3.3 15.3089 2.11538C15.3089 0.930769 14.3781 0 13.1935 0Z" fill="white"/>
<path d="M15 8L19 5V11L15 8Z" fill="white"/>
<g opacity="0.5">
<path d="M1.5 12.5H13.5V18.5H1.5V12.5Z" stroke="white"/>
<path d="M1 13L14 13V12H6.25C5.55964 12 5 11.4404 5 10.75V9L1 9V13Z" fill="white"/>
</g>
</svg>
